<svg width="15" height="17" viewBox="0 0 15 17" fill="none" xmlns="http://www.w3.org/2000/svg">
<path d="M14.4541 8.21875C14.4541 7.78678 14.2825 7.3725 13.977 7.06705C13.6716 6.7616 13.2573 6.59 12.8253 6.59C12.7681 6.58994 12.711 6.59286 12.6541 6.59875L14.8916 0H5.38345L7.61782 6.59313C7.58532 6.59313 7.5522 6.59 7.51907 6.59C7.13013 6.58956 6.75386 6.72831 6.45833 6.98117C6.16279 7.23403 5.9675 7.58431 5.90778 7.96864C5.84805 8.35297 5.92783 8.74599 6.13269 9.07661C6.33755 9.40724 6.65396 9.65364 7.0247 9.77125C6.67823 10.3678 6.24684 10.9108 5.74407 11.3831C5.08962 12.0088 4.31208 12.4913 3.46095 12.8C2.98408 12.574 2.61112 12.1749 2.41784 11.6839C2.22456 11.1929 2.22545 10.6467 2.42032 10.1562C2.46845 10.0437 2.5172 9.93 2.56345 9.81625C2.92661 9.73072 3.24941 9.52316 3.47793 9.22824C3.70644 8.93332 3.82682 8.5689 3.81895 8.19589C3.81108 7.82288 3.67544 7.46387 3.43469 7.17885C3.19394 6.89383 2.86266 6.70007 2.49622 6.62993C2.12978 6.5598 1.75037 6.61755 1.42139 6.79353C1.09241 6.96951 0.833787 7.25307 0.68874 7.59681C0.543692 7.94055 0.521006 8.32366 0.624472 8.68212C0.727937 9.04058 0.951287 9.35267 1.2572 9.56625C0.7373 10.5089 0.340518 11.5144 0.0765743 12.5581C-0.144676 13.8925 0.0765742 15.3081 1.2297 16.1087C3.9172 17.9719 6.83532 14.9538 9.91157 14.1956C11.0266 13.9206 12.2503 13.965 13.2322 13.3962C13.5869 13.1942 13.8928 12.9166 14.1282 12.583C14.3636 12.2495 14.5226 11.8682 14.5941 11.4663C14.6594 11.0833 14.6471 10.691 14.5579 10.3129C14.4687 9.93475 14.3043 9.5784 14.0747 9.265C14.3197 8.97218 14.4538 8.60244 14.4534 8.22062L14.4541 8.21875ZM9.14845 8.2275V8.22188C9.14891 7.94158 9.07687 7.66594 8.93932 7.42172C8.80177 7.1775 8.60339 6.97301 8.36345 6.82812L10.1409 3.2275L11.9222 6.86125C11.6987 7.00975 11.5155 7.21126 11.3889 7.44781C11.2623 7.68435 11.1962 7.94857 11.1966 8.21688V8.2525L9.14845 8.2275Z" fill="#C63D14"/>
</svg>
