<svg width="15" height="17" viewBox="0 0 15 17" fill="none" xmlns="http://www.w3.org/2000/svg">
<path d="M7.5 0C7.275 0 7.04167 0.0583333 6.85 0.166667L0.65 3.75C0.25 3.98333 0 4.41667 0 4.88333V12.0333C0 12.5 0.25 12.9333 0.65 13.1667L2.275 14.1C3.06667 14.4833 3.33333 14.4917 3.7 14.4917C4.86667 14.4917 5.54167 13.7833 5.54167 12.55V5.49167C5.54167 5.39167 5.45833 5.30833 5.35833 5.30833H4.58333C4.475 5.30833 4.39167 5.39167 4.39167 5.49167V12.55C4.39167 13.1 3.825 13.6417 2.91667 13.1833L1.20833 12.2083C1.18028 12.1885 1.15733 12.1623 1.14139 12.1319C1.12546 12.1015 1.11698 12.0677 1.11667 12.0333V4.88333C1.11667 4.80833 1.15 4.74167 1.20833 4.70833L7.40833 1.13333C7.45833 1.1 7.54167 1.1 7.59167 1.13333L13.7917 4.70833C13.85 4.74167 13.8833 4.80833 13.8833 4.88333V12.0333C13.8833 12.1 13.85 12.1667 13.7917 12.2083L7.59167 15.7833C7.54167 15.8167 7.45833 15.8167 7.4 15.7833L5.83333 14.8333C5.76667 14.8083 5.7 14.8 5.65833 14.825C5.21667 15.075 5.13333 15.125 4.725 15.25C4.625 15.2833 4.46667 15.3417 4.78333 15.5167L6.85 16.7417C7.05 16.8583 7.26667 16.9167 7.5 16.9167C7.73333 16.9167 7.95 16.8583 8.15 16.7417L14.35 13.1667C14.75 12.9333 15 12.5 15 12.0333V4.88333C15 4.41667 14.75 3.98333 14.35 3.75L8.15 0.166667C7.95833 0.0583333 7.73333 0 7.5 0ZM9.16667 5.125C7.4 5.125 6.34167 5.86667 6.34167 7.11667C6.34167 8.45833 7.39167 8.85 9.09167 9.01667C11.1167 9.21667 11.275 9.51667 11.275 9.91667C11.275 10.6083 10.7167 10.9 9.41667 10.9C7.76667 10.9 7.41667 10.4917 7.29167 9.675C7.28289 9.63279 7.2599 9.59487 7.22653 9.56757C7.19317 9.54027 7.15144 9.52524 7.10833 9.525H6.30833C6.20833 9.525 6.13333 9.6 6.13333 9.70833C6.13333 10.7417 6.7 11.9917 9.41667 11.9917C11.375 11.9917 12.5 11.2167 12.5 9.86667C12.5 8.525 11.6 8.175 9.69167 7.91667C7.76667 7.66667 7.575 7.53333 7.575 7.08333C7.575 6.70833 7.74167 6.20833 9.16667 6.20833C10.4167 6.20833 10.9083 6.48333 11.1 7.34167C11.1167 7.425 11.1917 7.48333 11.275 7.48333H12.0833C12.125 7.48333 12.175 7.46667 12.2083 7.425C12.2417 7.39167 12.2667 7.34167 12.25 7.29167C12.1333 5.80833 11.15 5.125 9.16667 5.125Z" fill="#68A063"/>
</svg>
