<svg width="18" height="17" viewBox="0 0 18 17" fill="none" xmlns="http://www.w3.org/2000/svg">
<path d="M8.70238 6.43919C9.53619 6.43919 10.2162 7.13919 10.2162 8.01419C10.2162 8.84753 9.53619 9.55586 8.70238 9.55586C7.86857 9.55586 7.18857 8.84753 7.18857 8.01419C7.18857 7.13919 7.86857 6.43919 8.70238 6.43919ZM4.95429 14.6809C5.46429 14.9975 6.58143 14.5142 7.86857 13.2642C7.44762 12.7725 7.03476 12.2392 6.64619 11.6809C5.99384 11.6166 5.34529 11.5165 4.70333 11.3809C4.29048 13.1642 4.44429 14.3892 4.95429 14.6809ZM5.52905 9.89753L5.29429 9.47253C5.20524 9.71419 5.11619 9.95586 5.05952 10.1892C5.2781 10.2392 5.52095 10.2809 5.7719 10.3225L5.52905 9.89753ZM10.8233 9.26419L11.479 8.01419L10.8233 6.76419C10.5805 6.32253 10.3214 5.93086 10.0867 5.53919C9.64952 5.51419 9.1881 5.51419 8.70238 5.51419C8.21667 5.51419 7.75524 5.51419 7.3181 5.53919C7.08333 5.93086 6.82429 6.32253 6.58143 6.76419L5.92571 8.01419L6.58143 9.26419C6.82429 9.70586 7.08333 10.0975 7.3181 10.4892C7.75524 10.5142 8.21667 10.5142 8.70238 10.5142C9.1881 10.5142 9.64952 10.5142 10.0867 10.4892C10.3214 10.0975 10.5805 9.70586 10.8233 9.26419ZM8.70238 3.66419C8.54857 3.84753 8.38667 4.03919 8.22476 4.26419H9.18C9.0181 4.03919 8.85619 3.84753 8.70238 3.66419ZM8.70238 12.3642C8.85619 12.1809 9.0181 11.9892 9.18 11.7642H8.22476C8.38667 11.9892 8.54857 12.1809 8.70238 12.3642ZM12.4424 1.34753C11.9405 1.03086 10.8233 1.51419 9.53619 2.76419C9.95714 3.25586 10.37 3.78919 10.7586 4.34753C11.4224 4.41419 12.0781 4.51419 12.7014 4.64753C13.1143 2.86419 12.9605 1.63919 12.4424 1.34753ZM11.8757 6.13086L12.1105 6.55586C12.1995 6.31419 12.2886 6.07253 12.3452 5.83919C12.1267 5.78919 11.8838 5.74753 11.6329 5.70586L11.8757 6.13086ZM13.0495 0.255861C14.2395 0.955861 14.369 2.79753 13.8671 4.94753C15.9233 5.57253 17.4048 6.60586 17.4048 8.01419C17.4048 9.42253 15.9233 10.4559 13.8671 11.0809C14.369 13.2309 14.2395 15.0725 13.0495 15.7725C11.8676 16.4725 10.2567 15.6725 8.70238 14.1475C7.1481 15.6725 5.53714 16.4725 4.34714 15.7725C3.16524 15.0725 3.03571 13.2309 3.53762 11.0809C1.48143 10.4559 0 9.42253 0 8.01419C0 6.60586 1.48143 5.57253 3.53762 4.94753C3.03571 2.79753 3.16524 0.955861 4.34714 0.255861C5.53714 -0.444139 7.1481 0.355861 8.70238 1.88086C10.2567 0.355861 11.8676 -0.444139 13.0495 0.255861ZM12.8148 8.01419C13.09 8.63919 13.3329 9.26419 13.5352 9.89753C15.2352 9.37253 16.1905 8.62253 16.1905 8.01419C16.1905 7.40586 15.2352 6.65586 13.5352 6.13086C13.3329 6.76419 13.09 7.38919 12.8148 8.01419ZM4.59 8.01419C4.31476 7.38919 4.07191 6.76419 3.86952 6.13086C2.16952 6.65586 1.21429 7.40586 1.21429 8.01419C1.21429 8.62253 2.16952 9.37253 3.86952 9.89753C4.07191 9.26419 4.31476 8.63919 4.59 8.01419ZM11.8757 9.89753L11.6329 10.3225C11.8838 10.2809 12.1267 10.2392 12.3452 10.1892C12.2886 9.95586 12.1995 9.71419 12.1105 9.47253L11.8757 9.89753ZM9.53619 13.2642C10.8233 14.5142 11.9405 14.9975 12.4424 14.6809C12.9605 14.3892 13.1143 13.1642 12.7014 11.3809C12.0781 11.5142 11.4224 11.6142 10.7586 11.6809C10.37 12.2392 9.95714 12.7725 9.53619 13.2642ZM5.52905 6.13086L5.7719 5.70586C5.52095 5.74753 5.2781 5.78919 5.05952 5.83919C5.11619 6.07253 5.20524 6.31419 5.29429 6.55586L5.52905 6.13086ZM7.86857 2.76419C6.58143 1.51419 5.46429 1.03086 4.95429 1.34753C4.44429 1.63919 4.29048 2.86419 4.70333 4.64753C5.34529 4.51194 5.99384 4.41179 6.64619 4.34753C7.03476 3.78919 7.44762 3.25586 7.86857 2.76419Z" fill="#61DBFB"/>
</svg>
