<svg width="418" height="465" viewBox="0 0 418 465" fill="none" xmlns="http://www.w3.org/2000/svg">
<path d="M298.851 432.736C407.136 414.494 395.155 357.749 391.396 297.348C387.683 237.712 403.127 174.941 393.666 115.944L392.897 111.152C385.29 63.7122 345.607 28.0136 297.63 25.4485L208.28 20.6714C173.837 18.8299 140.268 31.8982 116.135 56.5422L105.435 67.4693C90.0323 83.1992 77.4953 101.499 68.3913 121.544L28.5356 209.293C23.7679 219.79 19.8472 230.787 20.59 242.292C22.061 265.073 32.5373 310.088 82.1523 375.159C124.621 430.857 174.561 443.325 209.619 443.763C239.445 444.135 269.437 437.691 298.851 432.736Z" stroke="url(#paint0_linear_229_7)" stroke-width="41"/>
<defs>
<linearGradient id="paint0_linear_229_7" x1="214.389" y1="17.7746" x2="225.5" y2="418.5" gradientUnits="userSpaceOnUse">
<stop stop-color="#191116"/>
<stop offset="0.836926" stop-color="#261D22"/>
</linearGradient>
</defs>
</svg>
