<svg width="500" height="490" viewBox="0 0 500 490" fill="none" xmlns="http://www.w3.org/2000/svg">
<path d="M362.601 455.016C511.321 438.995 480.041 378.768 467.626 313.444C456.404 254.397 478.201 190.711 471.861 130.942L470.489 118.007C465.179 67.9566 424.155 29.2608 373.88 26.8815L241.874 20.6343C210.213 19.1359 179.245 30.2246 155.732 51.4793L132.414 72.5573C115.462 87.8805 101.43 106.151 90.9981 126.481L34.4018 236.78C34.4018 236.78 -16.7676 328.295 77.2324 415.295C143.815 476.92 241.507 472.567 292.829 464.785C315.945 461.28 339.356 457.521 362.601 455.016Z" stroke="url(#paint0_linear_229_8)" stroke-width="41"/>
<defs>
<linearGradient id="paint0_linear_229_8" x1="264.232" y1="18.2949" x2="264.146" y2="653.838" gradientUnits="userSpaceOnUse">
<stop stop-color="#D70A84"/>
<stop offset="1" stop-color="#51127F"/>
</linearGradient>
</defs>
</svg>
