<svg width="20" height="20" viewBox="0 0 20 20" fill="none" xmlns="http://www.w3.org/2000/svg">
<path d="M9.6425 2.69111e-05C9.49583 2.69111e-05 9.38417 0.000860244 9.34417 0.00586024C9.24314 0.0159618 9.14203 0.0251289 9.04083 0.0333602C6.20167 0.28836 3.54083 1.82086 1.85583 4.17669C0.923976 5.46964 0.318189 6.96852 0.09 8.54586C0.01 9.09503 0 9.25753 0 10.0017C0 10.7459 0.01 10.9092 0.09 11.4584C0.633333 15.2134 3.30667 18.3684 6.93083 19.5375C7.58 19.7459 8.26417 19.8892 9.0425 19.975C9.345 20.0084 10.655 20.0084 10.9583 19.975C12.3008 19.8267 13.4392 19.4942 14.5608 18.9217C14.7333 18.8334 14.7667 18.81 14.7433 18.79C14.7267 18.7792 13.9933 17.7959 13.1142 16.6067L11.515 14.4467L9.51167 11.4817C8.84517 10.4897 8.17238 9.50185 7.49333 8.51836C7.48583 8.51669 7.47833 9.83419 7.47417 11.4434C7.46833 14.26 7.46583 14.3725 7.43083 14.4392C7.39686 14.5173 7.33593 14.5806 7.25917 14.6175C7.19667 14.6484 7.1425 14.6542 6.84667 14.6542H6.5075L6.4175 14.5975C6.36187 14.5627 6.31667 14.5134 6.28667 14.455L6.245 14.3667L6.25 10.4475L6.25583 6.52669L6.31583 6.45003C6.3568 6.40211 6.40589 6.36177 6.46083 6.33086C6.54083 6.29169 6.5725 6.28836 6.91083 6.28836C7.30917 6.28836 7.37583 6.30336 7.47917 6.41669C8.29012 7.62356 9.0943 8.83497 9.89167 10.0509C11.2061 12.0431 12.5214 14.0347 13.8375 16.0259L15.4208 18.425L15.5008 18.3725C16.2631 17.866 16.9543 17.2598 17.5558 16.57C18.8156 15.128 19.6327 13.3531 19.9092 11.4584C19.9892 10.9084 19.9992 10.7467 19.9992 10.0017C19.9992 9.25753 19.9892 9.09503 19.9092 8.54586C19.3658 4.79086 16.6933 1.63586 13.0692 0.466694C12.3916 0.251263 11.6938 0.105235 10.9867 0.0308602C10.5392 0.00968217 10.0913 -0.000598656 9.64333 2.69111e-05H9.6425ZM13.0333 6.01419C13.3225 6.01419 13.3733 6.01836 13.4383 6.05336C13.4849 6.07686 13.5263 6.10936 13.5602 6.14898C13.5941 6.18861 13.6198 6.23457 13.6358 6.28419C13.6508 6.33419 13.655 7.42169 13.6508 9.87086L13.6458 13.3859L13.0258 12.4359L12.4042 11.4859V8.93086C12.4042 7.27919 12.4125 6.35003 12.4233 6.30586C12.4373 6.25374 12.4617 6.20499 12.4951 6.16259C12.5285 6.12019 12.5701 6.08501 12.6175 6.05919C12.6975 6.01753 12.7258 6.01419 13.0342 6.01419H13.0333Z" fill="white"/>
</svg>
